<svg width="33" height="33" viewBox="0 0 33 33" fill="none" xmlns="http://www.w3.org/2000/svg">
<g id="clarity:new-line" clip-path="url(#clip0_2604_1159)">
<path id="Vector" d="M31.4006 20.972L27.7307 16.4745L31.3286 12.067C31.5254 11.8259 31.6494 11.5336 31.6861 11.2246C31.7227 10.9155 31.6705 10.6024 31.5355 10.3219C31.3988 10.0076 31.1721 9.74078 30.884 9.5551C30.5958 9.36941 30.2592 9.27318 29.9164 9.27854H2.03213C1.8065 9.27496 1.58239 9.31587 1.37258 9.39893C1.16277 9.48198 0.971375 9.60556 0.80933 9.76259C0.647284 9.91963 0.517761 10.107 0.428157 10.3141C0.338554 10.5212 0.290625 10.744 0.287109 10.9696L0.287109 21.9884C0.296564 22.4425 0.485449 22.8744 0.812458 23.1896C1.13947 23.5048 1.57799 23.6777 2.03213 23.6704H30.0154C30.3466 23.676 30.6726 23.5866 30.9547 23.4129C31.2368 23.2391 31.4633 22.9883 31.6075 22.69C31.7369 22.4129 31.7862 22.1051 31.7496 21.8014C31.713 21.4977 31.5921 21.2104 31.4006 20.972ZM2.0861 21.8714V11.0775H29.7725L25.419 16.4115L29.8355 21.8714H2.0861Z" fill="white"/>
<path id="Vector_2" d="M8.73296 17.6889L5.80061 13.7761H4.78418V19.335H5.80061V15.4312L8.73296 19.335H9.74039V13.7761H8.73296V17.6889Z" fill="white"/>
<path id="Vector_3" d="M11.2432 19.335H15.4348V18.4175H12.2596V16.9693H15.129V16.0428H12.2596V14.7026H15.4348V13.7761H11.2432V19.335Z" fill="white"/>
<path id="Vector_4" d="M22.342 17.7609L21.0288 13.7761H19.9314L18.6091 17.7609L17.4218 13.7761H16.3154L18.0784 19.335H19.0769L20.4801 15.2063L21.8743 19.335H22.8907L24.6447 13.7761H23.5384L22.342 17.7609Z" fill="white"/>
</g>
<defs>
<clipPath id="clip0_2604_1159">
<rect width="32.3818" height="32.3818" fill="white" transform="translate(0.287109 0.283691)"/>
</clipPath>
</defs>
</svg>
